<?xml version="1.0" encoding="UTF-8"?>
<svg version="1.1" viewBox="0 0 1600 1600" width="1280" height="1280" xmlns="http://www.w3.org/2000/svg">
<path transform="translate(0)" d="m0 0h1600v1600h-1600v-1600z" fill="#FAFDFE"/>
<path transform="translate(452 397)" d="m0 0c1.25-0.00412 2.5-0.00825 3.79-0.0125 1.39 0.0106 2.77 0.0215 4.16 0.0327 1.46 8.46e-4 2.92 3.71e-4 4.38-0.00133 3.96-8.62e-4 7.92 0.0168 11.9 0.0377 4.14 0.0187 8.28 0.0205 12.4 0.0241 7.84 0.00933 15.7 0.034 23.5 0.064 8.93 0.0335 17.9 0.05 26.8 0.0651 18.4 0.0314 36.7 0.0842 55.1 0.151 1.26 2.52 2.52 5.05 3.79 7.57 0.353 0.705 0.706 1.41 1.07 2.14 2.2 4.4 4.39 8.8 6.57 13.2 5.74 11.6 11.6 23.1 17.8 34.4 4.53 8.21 8.93 16.5 13.3 24.8 4.76 9 9.56 18 14.5 26.9 3.47 6.26 6.79 12.6 9.95 19 2.59 5.26 5.31 10.5 8.05 15.6 2.88 5.43 5.71 10.9 8.44 16.4 2.62 5.3 5.35 10.5 8.12 15.8 4.05 7.62 7.92 15.3 11.8 23.1 4.53 9.13 9.24 18.1 14.2 27.1 5.19 9.41 10.1 18.9 15.1 28.5 1.99 3.83 3.99 7.65 6 11.5 0.39 0.741 0.78 1.48 1.18 2.25 2.36 4.49 4.74 8.97 7.12 13.4 1.86 3.5 3.72 7 5.57 10.5 0.574 1.08 0.574 1.08 1.16 2.19 6.39 12.1 12.7 24.2 18.9 36.3 4.81 9.41 9.73 18.7 14.8 28 5.6 10.2 10.9 20.5 16.1 30.9 0.732 1.43 1.46 2.86 2.2 4.29 0.357 0.697 0.713 1.39 1.08 2.11 2.79 5.44 5.65 10.8 8.55 16.2 7.66 14.2 7.66 14.2 7.66 18h2v2c3.47-2.31 4.05-3.73 5.75-7.48l1.58-3.43c0.558-1.24 1.12-2.48 1.67-3.72 0.583-1.28 1.17-2.56 1.75-3.84 1.19-2.6 2.37-5.21 3.56-7.82 1.49-3.29 3.01-6.58 4.54-9.86 6.75-14.6 13.1-29.3 19.5-44 2.48-5.77 4.98-11.5 7.47-17.3 0.816-1.89 1.63-3.77 2.45-5.66 2.56-5.91 5.14-11.8 7.76-17.7 5.47-12.3 10.6-24.5 15-37.2h3c1.2 3.26 2.35 6.54 3.5 9.81l1.01 2.76c4.22 12.2 2.83 20.3-2.7 31.8-0.824 1.78-1.65 3.56-2.47 5.34-0.86 1.86-1.73 3.71-2.6 5.56-2.83 6.04-5.53 12.1-8.24 18.2-0.82 1.83-1.64 3.66-2.46 5.49-3.86 8.6-7.69 17.2-11.5 25.8-4.25 9.57-8.53 19.1-12.8 28.7-2.86 6.37-5.71 12.8-8.54 19.1-4.73 10.7-9.52 21.3-14.3 31.9-4.41 9.77-8.79 19.6-13.1 29.4-1.74 3.92-3.48 7.83-5.24 11.7-0.503 1.12-0.503 1.12-1.02 2.26-0.664 1.48-1.33 2.95-2 4.42-1.81 3.7-1.81 3.7-2.45 7.7 5.75-0.441 9.41-2.8 14.1-5.94 0.749-0.497 1.5-0.993 2.27-1.5 11.9-7.99 22.6-16.9 32.9-26.9 1.57-1.52 3.16-3.02 4.74-4.52 11.1-10.7 20.1-22.9 28-36.2 0.379-0.632 0.758-1.26 1.15-1.91 11-18.5 18.8-38 23.1-59.1 0.151-0.729 0.302-1.46 0.458-2.21 2.8-14.6 3.62-29.2 3.55-44.1-0.0107-2.7-1.25e-5 -5.39 0.0127-8.09 0.0144-15.4-1.36-30.2-4.96-45.3-0.392-1.66-0.392-1.66-0.792-3.35-9.18-37.7-27.8-68.9-54.5-96.9-0.602-0.655-1.2-1.31-1.82-1.98-25.8-27.3-64.6-46.5-101-53-0.99-0.195-1.98-0.389-3-0.59-11-2.14-21.9-2.54-33-2.66-3.36-0.0619-6.73-0.128-10.1-0.196-3.49-0.0682-6.99-0.122-10.5-0.147-2.75-0.0204-5.5-0.0614-8.25-0.126-2.58-0.0609-5.15-0.0924-7.73-0.091-8.46-0.263-8.46-0.263-11.3-2.95-1.28-2.04-2.22-4.02-3.14-6.24-0.639-0.908-1.28-1.82-1.94-2.75-0.351-0.743-0.701-1.49-1.06-2.25 0.934-2.14 0.934-2.14 2-4 4.44-0.029 8.87-0.0468 13.3-0.0625 1.26-0.00838 2.53-0.0168 3.83-0.0254 1.21-0.00322 2.42-0.00645 3.66-0.00977 1.67-0.00786 1.67-0.00786 3.38-0.0159 2.82 0.114 2.82 0.114 5.82 1.11 1.97-0.0941 1.97-0.0941 4.09-0.432 4.86-0.61 9.62-0.697 14.5-0.658 0.935 0.00379 1.87 0.00758 2.83 0.0115 12.3 0.0663 24.5 0.254 36.8 0.451 2.74 0.0439 5.48 0.0855 8.22 0.125 40.5 0.584 78.3 1.53 116 19.5 1.1 0.521 1.1 0.521 2.22 1.05 4.65 2.21 9.23 4.53 13.8 6.95 0.604 0.318 1.21 0.636 1.83 0.963 14.2 7.53 26.1 17.6 38.2 28 0.922 0.797 1.84 1.59 2.79 2.41 4.48 3.94 8.62 7.96 12.5 12.5 1.19 1.39 2.42 2.75 3.69 4.07 24.4 25.6 39.1 58.8 50.1 92 0.783 2.35 1.57 4.7 2.35 7.05 0.596 1.79 1.18 3.59 1.77 5.38 0.794 2.51 0.794 2.51 1.88 4.56v-224c-2.92 2.92-4.03 4.83-5.71 8.52-0.757 1.66-0.757 1.66-1.53 3.35-0.78 1.73-0.78 1.73-1.58 3.5-1.03 2.26-2.05 4.52-3.08 6.77-0.513 1.13-1.03 2.27-1.56 3.44-1.51 3.33-3.05 6.65-4.58 9.98-2.93 6.33-5.77 12.7-8.59 19.1-1.04 2.34-2.08 4.68-3.12 7.03-0.796 1.8-0.796 1.8-1.61 3.63-2.53 5.7-5.06 11.4-7.59 17.1-1.29 2.89-2.57 5.78-3.86 8.67l-2.2 4.96c-3.59-0.514-5.6-1.09-8.11-3.72-0.525-0.538-1.05-1.08-1.59-1.63-0.796-0.846-0.796-0.846-1.61-1.71-0.55-0.568-1.1-1.14-1.67-1.72-1.35-1.4-2.69-2.81-4.02-4.22 1.41-4.48 3.15-8.72 5.13-13 0.463-1 0.463-1 0.935-2.03 0.667-1.45 1.34-2.9 2.01-4.34 1.82-3.93 3.63-7.87 5.43-11.8 0.374-0.815 0.747-1.63 1.13-2.47 3.87-8.45 7.66-16.9 11.4-25.4 0.493-1.11 0.493-1.11 0.995-2.24 1.99-4.48 3.97-8.97 5.95-13.5 0.996-2.25 1.99-4.51 2.99-6.76 8.04-18.2 8.04-18.2 16-36.4 0.451-1.04 0.903-2.09 1.37-3.16 0.809-1.87 1.61-3.75 2.42-5.63 6.88-16 6.88-16 9.23-18.3 1.62-0.0982 3.25-0.126 4.88-0.127 1.59-0.00423 1.59-0.00423 3.2-0.00854 1.17 0.00202 2.34 0.00405 3.54 0.00613 1.22-0.00175 2.45-0.0035 3.71-0.00531 3.37-0.00366 6.74-0.00278 10.1 3.79e-4 3.53 0.00253 7.06 1.85e-4 10.6-0.00139 5.94-0.00182 11.9 5.85e-4 17.8 0.00534 6.85 0.00542 13.7 0.00369 20.5-0.00183 5.88-0.00455 11.8-0.00517 17.6-0.00256 3.51 0.00155 7.02 0.00178 10.5-0.00154 3.93-0.00345 7.85 0.00135 11.8 0.0069 1.15-0.00202 2.31-0.00405 3.5-0.00613 6.14 0.016 12.1 0.328 18.2 1.14 0.33 1.98 0.66 3.96 1 6-3.84 3.54-8.51 4.58-13.4 6.13-17.1 5.74-29.8 14.6-38.1 31.1-7.32 14.7-6.71 30.3-6.69 46.4-0.00116 1.62-0.00275 3.24-0.00473 4.86-0.00414 4.41-0.00213 8.83 9.86e-4 13.2 0.00228 4.78-0.00124 9.56-0.00398 14.3-0.00444 9.35-0.00349 18.7-5.87e-4 28 0.00227 7.61 0.00256 15.2 0.00148 22.8-1.53e-4 1.09-3.06e-4 2.17-4.64e-4 3.29-3.2e-4 2.21-6.44e-4 4.42-9.73e-4 6.63-0.00285 20.7 4.22e-4 41.4 0.0058 62.1 0.00445 17.7 0.0037 35.4-9.19e-4 53.1-0.00538 20.6-0.00744 41.2-0.00439 61.8 3.18e-4 2.21 6.33e-4 4.41 9.43e-4 6.62 1.54e-4 1.09 3.09e-4 2.17 4.68e-4 3.29 8.56e-4 7.58-5.79e-4 15.2-0.00295 22.7-0.00283 9.27-0.00198 18.5 0.00328 27.8 0.00259 4.72 0.00372 9.43 3.51e-4 14.1-0.0112 17.3 0.0352 34.5 0.46 51.8 0.0367 1.51 0.0707 3.01 0.102 4.52-0.0229 14.2-0.0229 14.2 5.38 27 0.481 0.684 0.962 1.37 1.46 2.07 0.571 0.739 1.14 1.48 1.73 2.24 0.754 1 1.51 2.01 2.29 3.04 2.67 3.17 5.59 4.79 9.34 6.58 0.609 0.294 1.22 0.589 1.84 0.892 4.66 2.21 9.4 3.96 14.3 5.46 2.75 1.27 3.79 2.35 5.21 5.02 0.0742 2.58 0.0742 2.58-0.312 5.25-0.12 0.892-0.24 1.78-0.363 2.7-0.107 0.675-0.214 1.35-0.324 2.05-3.35 1.12-5.86 1.13-9.39 1.13-0.651 0.00156-1.3 0.00312-1.97 0.00473-2.19 0.00399-4.37 8.26e-4 -6.56-0.00232-1.57 0.00135-3.13 0.00314-4.7 0.00531-4.25 0.00457-8.51 0.00279-12.8-3.79e-4 -4.45-0.00253-8.89-1.85e-4 -13.3 0.00139-7.46 0.00182-14.9-5.81e-4 -22.4-0.00534-8.64-0.00545-17.3-0.00368-25.9 0.00183-7.41 0.00453-14.8 0.00518-22.2 0.00256-4.43-0.00156-8.86-0.00176-13.3 0.00154-4.16 0.00288-8.32 9.04e-4 -12.5-0.00489-1.53-0.00133-3.06-9.33e-4 -4.59 0.00126-2.08 0.00271-4.16-6.69e-4 -6.25-0.00568-1.17-3.77e-4 -2.34-7.54e-4 -3.54-0.00114-2.6-0.126-2.6-0.126-3.6-1.13-0.234-2.02-0.413-4.04-0.562-6.06-0.0838-1.1-0.168-2.21-0.254-3.35-0.0606-0.855-0.121-1.71-0.184-2.59 3.66-2.4 7.03-3.72 11.2-4.88 12.1-3.59 19.8-9.57 26.8-20.1 3.89-8.7 3.14-19 3.11-28.3 2.19e-4 -1.96 2.19e-4 -1.96 4.43e-4 -3.96 2.85e-4 -3.56-0.00556-7.12-0.0126-10.7-0.00628-3.73-0.00684-7.46-0.00803-11.2-0.0031-7.05-0.0113-14.1-0.0213-21.2-0.0112-8.04-0.0167-16.1-0.0217-24.1-0.0104-16.5-0.028-33-0.0503-49.6-0.48 1.42-0.958 2.84-1.44 4.26-0.266 0.79-0.533 1.58-0.807 2.4-0.871 2.7-1.59 5.42-2.29 8.16-6.64 25.7-17 51.4-32.5 73.2-0.482 0.685-0.963 1.37-1.46 2.08-7.53 10.7-15.4 20.6-24.5 29.9-1.08 1.12-2.17 2.24-3.25 3.37-6.55 6.72-13.3 12.9-20.8 18.6-0.994 0.811-1.99 1.62-3.01 2.46-8.14 6.57-16.7 11.7-26 16.5-0.843 0.445-1.69 0.89-2.55 1.35-15.9 8.38-31.7 15.3-49.3 19.4-1.2 0.28-1.2 0.28-2.42 0.566-2.89 0.627-5.79 1.16-8.7 1.68-0.672 0.125-1.34 0.249-2.04 0.378-16 2.89-31.9 3.17-48.1 3.29-3.31 0.0287-6.62 0.0764-9.94 0.121-63.7 0.808-127 0.134-191-0.13-14.1-0.0587-28.2-0.115-42.4-0.165-11.2-0.0404-22.5-0.0845-33.7-0.132-6.26-0.0265-12.5-0.0514-18.8-0.0722-5.82-0.0195-11.6-0.0436-17.5-0.0714-2.14-0.00939-4.27-0.0171-6.41-0.0229-2.9-0.00822-5.8-0.0225-8.7-0.0384-0.855-9.78e-4 -1.71-0.00196-2.59-0.00296-5.78-0.0411-5.78-0.0411-6.89-1.16-0.273-2.4-0.273-2.4-0.375-5.38-0.049-0.977-0.098-1.95-0.148-2.96 0.523-2.66 0.523-2.66 2.66-4.29 3.27-1.56 5.59-1.82 9.2-1.96 1.22-0.0598 2.44-0.12 3.7-0.181 1.29-0.0549 2.57-0.11 3.9-0.167 10.2-0.569 19.5-1.18 29.1-5.06 0.788-0.298 1.58-0.596 2.39-0.902 5.19-2.24 8.39-5.51 11.6-10.1 0.465-0.659 0.931-1.32 1.41-2 7.11-11.3 5.88-25.7 5.85-38.5 0.00303-1.85 0.00692-3.71 0.0116-5.56 0.0102-5.07 0.00811-10.1 0.00382-15.2-0.00247-5.48 0.00656-11 0.014-16.4 0.0127-10.7 0.0145-21.4 0.0122-32.1-0.00178-8.71-2.96e-5 -17.4 0.00422-26.1 5.95e-4 -1.24 0.00119-2.48 0.0018-3.76 0.00121-2.52 0.00243-5.04 0.00364-7.56 0.00963-20.9 0.0101-41.9 0.0047-62.8-1.71e-4 -0.665-3.42e-4 -1.33-5.18e-4 -2.02-3.47e-4 -1.34-6.95e-4 -2.69-0.00105-4.03-0.00536-20.9 0.00258-41.9 0.021-62.8 0.0207-23.5 0.0314-47.1 0.0274-70.6-0.00191-12.5 5.75e-4 -24.9 0.0147-37.4 0.0119-10.6 0.0133-21.2 0.00121-31.8-0.00589-5.41-0.00699-10.8 5e-3 -16.2 0.0109-4.95 0.00776-9.91-0.00626-14.9-0.00265-1.79-2.79e-4 -3.58 0.00774-5.36 0.0718-17.2-2.26-30.2-14.5-43-10.7-9.21-24.3-9.38-37.6-9.45-2.33-0.0291-4.66-0.0635-6.98-0.102-1.43-0.0224-2.87-0.0383-4.3-0.0468-4.85-0.0535-4.85-0.0535-5.96-1.16-0.151-1.79-0.222-3.58-0.25-5.38-0.0387-1.47-0.0387-1.47-0.0781-2.96 0.328-2.66 0.328-2.66 1.47-4.31 2.65-1.94 4.57-1.73 7.83-1.72z" fill="#867C72"/>
<path transform="translate(536,478)" d="m0 0c1.86 0.297 1.86 0.297 4 1 1.77 2.5 3.27 4.9 4.75 7.56 0.437 0.764 0.874 1.53 1.32 2.31 3.56 6.3 6.82 12.7 10 19.2 1.89 3.85 3.9 7.63 5.93 11.4 2.67 4.96 5.25 9.96 7.75 15 3.97 7.98 8.12 15.9 12.3 23.7 0.741 1.39 1.48 2.78 2.22 4.17 3.55 6.67 7.12 13.3 10.7 20 0.316 0.588 0.631 1.18 0.957 1.78 0.312 0.582 0.625 1.16 0.947 1.76 6.47 12.1 12.8 24.1 19.1 36.3 2.64 5.09 5.3 10.2 7.98 15.2 4.43 8.39 8.8 16.8 13.2 25.2 3.36 6.46 6.74 12.9 10.1 19.3 3.35 6.34 6.6 12.7 9.78 19.1 2.61 5.25 5.34 10.4 8.12 15.6 1.77 3.3 3.5 6.61 5.16 9.96 5.92 12 12.3 23.7 18.7 35.4 15.6 28.7 30.9 57.6 45.5 86.9 3.04 6.11 6.19 12.1 9.38 18.2 2.6 4.91 5.17 9.84 7.71 14.8 0.316 0.615 0.633 1.23 0.959 1.86 2.64 5.13 2.64 5.13 3.9 7.58 4.37 8.51 8.84 17 13.7 25.2 2.08 3.59 3.32 6.17 2.79 10.4-22.9 12.6-56.9 9.18-82.2 9.19-1.07 9.97e-4 -2.14 0.00199-3.24 0.00302-3.05-3.22e-4 -6.1-0.0093-9.15-0.0226-0.931-0.00121-1.86-0.00242-2.82-0.00366-6.42-0.0476-6.42-0.0476-7.54-1.16-0.0918-2.27-0.111-4.54-0.104-6.81 7.07e-4 -0.721 0.00141-1.44 0.00214-2.18 0.0034-2.43 0.0138-4.87 0.0239-7.3 0.00351-1.74 0.00648-3.48 0.00894-5.21 0.00569-3.75 0.0137-7.51 0.023-11.3 0.0132-5.95 0.0114-11.9 0.00577-17.8-9.2e-4 -1-0.00184-2.01-0.00279-3.04-0.00297-3.09-0.00614-6.19-0.00931-9.28-0.0128-12.8-0.015-25.6 0.0286-38.4 0.0316-9.34 0.0347-18.7 0.00524-28-0.0145-4.94-0.0149-9.87 0.0194-14.8 0.0321-4.66 0.0261-9.32-0.0075-14-0.00576-1.7 0.00178-3.4 0.0246-5.09 0.157-12.5-2.69-21-9.02-31.7-1.04-1.95-2.07-3.91-3.08-5.87-0.907-1.67-1.82-3.34-2.73-5.01-0.463-0.865-0.927-1.73-1.4-2.62-0.451-0.824-0.901-1.65-1.37-2.5-0.394-0.726-0.788-1.45-1.19-2.2-1.26-2.1-1.26-2.1-4.22-3.81 0.00277 0.949 0.00553 1.9 0.00838 2.88 0.0667 23.1 0.116 46.2 0.147 69.4 0.0155 11.2 0.0365 22.4 0.0709 33.5 0.0299 9.75 0.0493 19.5 0.0559 29.2 0.0039 5.16 0.0131 10.3 0.0349 15.5 0.0204 4.86 0.0266 9.72 0.0221 14.6 8.22e-4 1.78 0.00675 3.56 0.0183 5.34 0.0803 13-0.429 23.5-9.36 33.6-0.514 0.619-1.03 1.24-1.56 1.88-6.64 7.39-16.7 11.4-26.5 12.3-2.16 0.073-4.32 0.089-6.48 0.0772-1.18 0.00287-1.18 0.00287-2.39 0.0058-1.66 0.00135-3.31-0.00227-4.97-0.0107-2.51-0.0107-5.02-7.82e-5 -7.53 0.0127-1.62-0.00132-3.24-0.00389-4.86-0.00781-0.738 0.00405-1.48 0.0081-2.24 0.0123-13.4-0.118-23.6-4.9-33.3-14.1-12.8-13.2-10.3-32.7-10.2-49.8-4.37e-4 -1.71-0.00131-3.43-0.00259-5.14-0.00222-4.66 0.00174-9.32 0.00678-14 0.00435-5.04 0.00286-10.1 0.0021-15.1-5.23e-4 -8.72 0.0026-17.4 0.00824-26.2 0.00815-12.6 0.0107-25.2 0.012-37.8 0.00218-20.5 0.00883-40.9 0.0183-61.4 0.00919-19.9 0.0163-39.7 0.0205-59.6 2.63e-4 -1.23 5.25e-4 -2.45 7.96e-4 -3.72 0.00131-6.15 0.00257-12.3 0.00381-18.5 0.0104-51 0.028-102 0.0503-153z" fill="#FAFDFE"/>
<path transform="translate(617,1039)" d="m0 0c1.94 0.103 3.87 0.183 5.81 0.25 15.7 1.15 29.1 8.68 39.8 20 17.8 21.1 20.9 47.7 19.1 74.3-1.77 20.4-8.31 38-23.5 52.2-4.24 3.47-9.06 5.99-13.9 8.51-0.623 0.333-1.25 0.667-1.89 1.01-10.5 5.24-21.7 6.37-33.2 6.3-1.23-0.00645-2.45-0.0129-3.71-0.0195-18.8-0.378-34.6-7.4-48.3-20.2-15.9-16.6-20.6-40.6-20.5-63 0.52-23.5 7.39-45.5 24.3-62.3 10.3-9.84 23.9-15.5 38-17 1.35-0.186 2.71-0.374 4.06-0.562 4.88-0.542 9.25-1 13.9 0.562z" fill="#002643"/>
<path transform="translate(474,1046)" d="m0 0c0.922 0.454 1.84 0.908 2.79 1.38 14.5 7.91 25.1 22.9 29.8 38.6 2.45 8.92 4.13 17.8 4.42 27.1 0.04 0.999 0.0799 2 0.121 3.03 0.496 23.6-4.2 46.7-19.4 65.3-1.7 1.7-1.7 1.7-3.7 1.7-0.33 0.99-0.66 1.98-1 3-14 10.9-30.1 15.6-47.7 15.5-1.23-0.00572-2.45-0.0114-3.72-0.0173-19.3-0.378-36.2-7.04-50-20.7-17.4-18.5-20.2-42.9-19.7-67.1 0.67-21 7.89-41.3 22.4-56.6 22.7-21.2 58.3-24.6 85.7-11z" fill="#002643"/>
<path transform="translate(204,1041)" d="m0 0c7.25-0.0469 14.5-0.0822 21.8-0.104 3.37-0.0103 6.74-0.0254 10.1-0.0473 59.5-0.376 59.5-0.376 81.1 18.2 0.99 0.66 1.98 1.32 3 2v2h2c15.7 17.9 19.9 41.9 19 65-1.68 21.3-8.45 39.8-25 54-7.35 5.64-15.3 9.03-24 12-1.13 0.392-2.27 0.784-3.44 1.19-10.8 2.47-21.7 3.15-32.8 3.3-1.4 0.0239-2.81 0.0482-4.21 0.0731-2.91 0.0494-5.82 0.0923-8.73 0.131-3.72 0.0495-7.44 0.117-11.2 0.189-2.88 0.0537-5.77 0.0977-8.65 0.139-1.37 0.0208-2.74 0.0447-4.12 0.0719-1.91 0.0366-3.82 0.0584-5.73 0.0796-1.08 0.0162-2.17 0.0323-3.28 0.049-3.03-0.223-5.2-0.932-7.94-2.22 3-3 3-3 12-4-0.33-47.5-0.66-95-1-144-3.66-1.46-7.26-2.78-11-4 0.66-1.32 1.32-2.64 2-4z" fill="#002643"/>
<path transform="translate(830 1058)" d="m0 0c6.96 8.58 10.1 19.5 9.78 30.5-1.14 10.9-4.5 18.7-12.9 25.7-8.59 6.44-20.3 11.7-31.3 11.7l1 2c1.85 0.505 1.85 0.505 4.06 0.812 8.73 1.81 14.9 6.92 19.9 14.2 3.96 7 7.25 14.4 10.6 21.7 1.29 2.79 2.6 5.57 3.91 8.35 0.65 1.39 1.29 2.79 1.93 4.19 4.62 10.4 4.62 10.4 13.1 17.8 0.49 0.325 0.981 0.65 1.49 0.985v2c-4.94 0.125-9.89 0.215-14.8 0.275-1.68 0.025-3.36 0.0589-5.03 0.103-10.8 0.272-19.5 0.33-28.1-7.07-6.18-6.02-9.47-14.6-13-22.3-0.38-0.817-0.76-1.63-1.15-2.48-3.8-8.21-7.51-16.4-10.7-24.9-0.72-1.88-1.45-3.75-2.19-5.62-0.276-0.7-0.552-1.4-0.836-2.12-0.861-1.95-0.861-1.95-3.16-3.88-4.07-0.649-8.25-0.874-12 1-0.33 19.8-0.66 39.6-1 60 6.93 2.08 6.93 2.08 14 3 1.62 2.5 1.62 2.5 3 5-8.7-0.0843-17.4-0.179-26.1-0.288-4.04-0.05-8.08-0.0963-12.1-0.134-3.9-0.0368-7.79-0.0831-11.7-0.136-1.49-0.0186-2.98-0.0337-4.47-0.0453-2.08-0.0168-4.16-0.0458-6.24-0.0778-1.78-0.02-1.78-0.02-3.59-0.0404-2.78-0.278-2.78-0.278-4.78-2.28 3.01-3.01 6.45-2.84 10.6-3.44 0.803-0.186 1.61-0.371 2.43-0.562 1.32-2.65 1.11-4.59 1.08-7.56-0.00704-1.18-0.0141-2.36-0.0213-3.58-0.0129-1.3-0.0259-2.6-0.0392-3.95-0.0101-1.38-0.0198-2.76-0.0291-4.14-0.0265-3.75-0.0593-7.5-0.0931-11.3-0.0343-3.92-0.0629-7.84-0.0921-11.8-0.0562-7.42-0.118-14.8-0.181-22.3-0.0717-8.45-0.138-16.9-0.203-25.3-0.135-17.4-0.277-34.8-0.424-52.2-0.626-0.277-1.25-0.554-1.9-0.84-0.817-0.362-1.63-0.724-2.48-1.1-0.812-0.36-1.62-0.719-2.46-1.09-1.4-0.63-2.79-1.29-4.16-1.97 0.33-0.99 0.66-1.98 1-3 6.42-0.145 12.8-0.287 19.3-0.427 2.18-0.0479 4.35-0.0964 6.53-0.146 74-1.67 74-1.67 93.7 16.7z" fill="#002643"/>
<path transform="translate(887 1041)" d="m0 0c1.56 0.00121 1.56 0.00121 3.15 0.00244 23.7 0.189 23.7 0.189 31.9 8.19 13.8 17.6 23.1 40 32.9 59.9 3.47 7.04 7.15 14 10.8 20.9 0.68 1.28 1.36 2.55 2.04 3.83 0.958 1.8 1.92 3.6 2.89 5.4 0.562 1.05 1.12 2.1 1.7 3.18 1.41 2.45 2.69 4.68 4.59 6.77h3c0.396-1.03 0.791-2.05 1.2-3.11 7.75-20.1 15.6-40.2 23.9-60.1 0.348-0.848 0.697-1.7 1.06-2.57 14.6-35.4 14.6-35.4 22.9-39.2 8.41-2.32 17.1-2.25 25.8-2.12 1.19 0.00902 2.37 0.018 3.59 0.0273 2.89 0.0233 5.77 0.056 8.66 0.0977 0.33 1.32 0.66 2.64 1 4-1.07 0.199-1.07 0.199-2.15 0.402-1.38 0.265-1.38 0.265-2.79 0.535-0.917 0.174-1.83 0.348-2.78 0.527-2.24 0.312-2.24 0.312-3.29 1.54-0.153 2.51-0.237 5-0.281 7.51-0.0181 0.831-0.0362 1.66-0.0548 2.52-0.0603 2.89-0.112 5.77-0.164 8.66-0.0196 1.01-0.0391 2.01-0.0593 3.05-0.783 40.4-1.05 80.8-1.44 121 1.05 0.13 1.05 0.13 2.12 0.262 1.37 0.211 1.37 0.211 2.76 0.426 0.905 0.128 1.81 0.255 2.74 0.387 2.38 0.926 2.38 0.926 3.7 3.51 0.336 1.2 0.336 1.2 0.68 2.42-7.66-0.107-15.3-0.22-23-0.339-3.56-0.0552-7.11-0.109-10.7-0.158-4.09-0.0568-8.17-0.121-12.3-0.186-1.28-0.0167-2.56-0.0334-3.88-0.0506-1.18-0.0199-2.36-0.0399-3.58-0.0604-1.04-0.0155-2.09-0.0311-3.16-0.0471-2.48-0.158-2.48-0.158-4.48-1.16v-3c3.63-0.33 7.26-0.66 11-1v-114c-5.69 7.59-8.68 16.9-11.8 25.8-7.19 20.8-16.1 41.1-24.4 61.5-0.335 0.814-0.67 1.63-1.02 2.47-0.33 0.803-0.66 1.61-1 2.43-1.94 4.71-3.85 9.42-5.76 14.1-0.418 1.04-0.836 2.07-1.27 3.14-0.742 1.84-1.48 3.68-2.21 5.53-2.34 5.79-2.34 5.79-4.56 8.01-2.37 0.0391-2.37 0.0391-5-1-1.62-2.22-2.82-4.21-4.06-6.62-0.566-1.05-0.566-1.05-1.14-2.13-1.28-2.41-2.54-4.83-3.79-7.25-0.954-1.83-1.91-3.65-2.86-5.48-1.52-2.91-3.03-5.81-4.54-8.72-3.84-7.4-7.82-14.7-11.9-22-2.86-5.17-5.55-10.4-8.14-15.7-2.05-4.01-4.25-7.93-6.46-11.9-3.19-5.68-6.26-11.4-9.12-17.2-2.98-6.07-6.15-12-9.44-17.9-0.438-0.788-0.875-1.58-1.33-2.39-1.83-3.55-1.83-3.55-4.24-6.67v111c2.52 1.01 5.05 2.02 7.61 2.93 0.852 0.312 1.7 0.624 2.58 0.945 1.29 0.46 1.29 0.46 2.61 0.93 2.62 1.42 3.02 2.55 4.21 5.2-5.5 0.217-11 0.414-16.5 0.592-1.87 0.0635-3.74 0.132-5.61 0.207-2.69 0.106-5.38 0.193-8.06 0.275-1.26 0.056-1.26 0.056-2.54 0.113-5.89 0.153-5.89 0.153-8.03-1.7-0.414-0.49-0.828-0.98-1.25-1.48 1.19-0.752 2.37-1.5 3.56-2.25 0.992-0.626 0.992-0.626 2-1.27 2.43-1.48 2.43-1.48 6.03-3.12 3.05-1.76 3.31-2.02 4.29-5.64 0.00666-1.97 0.00666-1.97 0.0135-3.97 0.012-0.73 0.024-1.46 0.0364-2.21 0.0316-2.44 0.0135-4.88-0.00463-7.32 0.0122-1.74 0.0274-3.48 0.0454-5.22 0.04-4.69 0.0371-9.38 0.0267-14.1-0.00291-4.83 0.0356-9.67 0.0695-14.5 0.0683-10.9 0.0681-21.8 0.0557-32.7-0.00265-4.12 0.00225-8.23 0.00699-12.3 0.00361-4.01 0.00247-8.02-1.28e-4 -12-6.61e-4 -1.89 1.29e-4 -3.78 0.00248-5.67 0.00255-2.62-0.00135-5.24-0.0069-7.86 0.00202-0.757 0.00405-1.51 0.00613-2.29-0.0204-5.22-0.491-10.3-1.14-15.5-0.671-0.144-1.34-0.288-2.03-0.436-6.72-1.44-6.72-1.44-8.97-2.56 0.33-0.99 0.66-1.98 1-3 4.58-1.53 9.14-1.19 13.9-1.19z" fill="#002643"/>
<path transform="translate(1395,1042)" d="m0 0v5c-3.6 1.62-7.05 3.07-10.9 4.06-1.03 0.309-2.06 0.619-3.12 0.938-1.61 3.23-1.17 6.76-1.19 10.3-0.00831 0.864-0.0166 1.73-0.0252 2.62-0.0267 2.89-0.0466 5.77-0.0666 8.66-0.0178 2.03-0.0361 4.07-0.0548 6.1-0.0391 4.32-0.0755 8.64-0.11 13-0.0884 11.1-0.195 22.2-0.3 33.4-0.0102 1.09-0.0205 2.18-0.031 3.31-0.169 17.9-0.412 35.8-0.785 53.7-0.0222 1.07-0.0445 2.14-0.0674 3.25-0.117 5.56-0.24 11.1-0.37 16.7-11.3-4.34-19-15.2-26.4-24.4-3.24-4.01-6.61-7.85-10.1-11.6-4.26-4.58-8.27-9.3-12.2-14.2-6.28-7.74-12.8-15.3-19.3-22.8-14.5-16.9-14.5-16.9-21.4-25.4-3.79-4.64-7.65-9.21-11.6-13.8-0.568-0.664-1.14-1.33-1.72-2.01-0.534-0.617-1.07-1.23-1.62-1.87-0.477-0.553-0.954-1.11-1.45-1.68-1.26-1.45-1.26-1.45-3.28-2.32-0.0236 8.83-0.0412 17.7-0.0518 26.5-0.00513 4.11-0.012 8.21-0.0236 12.3-0.0598 21.7 0.23 43.4 1.08 65.2 0.987 0.447 1.97 0.895 2.99 1.36 1.29 0.61 2.59 1.22 3.88 1.83 0.651 0.292 1.3 0.584 1.97 0.885 3.19 1.53 4.92 2.49 6.6 5.67 0.183 0.746 0.366 1.49 0.555 2.26-5.02 0.0496-10 0.0858-15.1 0.11-1.71 0.01-3.41 0.0237-5.12 0.041-2.46 0.0244-4.91 0.0356-7.37 0.0444-0.756 0.0103-1.51 0.0206-2.29 0.0313-4.45 9.33e-4 -8.04-0.575-12.2-2.23 3.73-4.26 7.32-5.26 12.6-6.78 0.78-0.403 1.56-0.807 2.36-1.22 1.03-3.58 1.12-7.02 1.12-10.7 0.00137-1.14 0.00275-2.29 0.00417-3.46-0.0036-1.24-0.00719-2.49-0.0109-3.77 2.19e-4 -1.98 2.19e-4 -1.98 4.43e-4 -3.99 2.87e-4 -3.6-0.00559-7.21-0.0126-10.8-0.00626-3.77-0.00684-7.54-0.00803-11.3-0.00311-7.14-0.0113-14.3-0.0213-21.4-0.0112-8.13-0.0167-16.3-0.0217-24.4-0.0104-16.7-0.028-33.4-0.0503-50.1-1.9-0.236-1.9-0.236-3.85-0.477-6.29-0.779-6.29-0.779-8.15-1.52-0.33-0.99-0.66-1.98-1-3 3.85-3.85 10.7-2.37 15.9-2.38 1.28-0.0245 2.56-0.049 3.88-0.0742 10.1-0.0309 19.6 1.11 27.2 8.45 1.22 1.18 1.22 1.18 2.46 2.38 6.84 7.07 13.4 14.3 19.5 22 4.23 5.31 8.67 10.4 13.1 15.6 0.501 0.589 1 1.18 1.52 1.78 4.99 5.86 9.99 11.7 15.2 17.4 3.03 3.33 5.92 6.75 8.75 10.2 7.31 9.94 7.31 9.94 16.6 17.6-0.107-10.9-0.22-21.8-0.339-32.8-0.0552-5.07-0.109-10.1-0.158-15.2-0.0476-4.89-0.1-9.78-0.156-14.7-0.0204-1.87-0.0391-3.74-0.0561-5.61-0.024-2.61-0.0541-5.22-0.0856-7.83-0.00576-0.778-0.0115-1.56-0.0174-2.36 0.0219-3.92 0.0219-3.92-1.19-7.58-3.04-1.07-6.12-1.93-9.21-2.8-2.79-1.2-2.79-1.2-4.16-3.33-0.205-0.616-0.41-1.23-0.621-1.87 1.99-1.99 5.88-1.28 8.61-1.35 1.15-0.0347 1.15-0.0347 2.32-0.0702 1.62-0.0477 3.25-0.0929 4.87-0.136 2.48-0.0668 4.96-0.145 7.45-0.224 1.58-0.0449 3.15-0.0892 4.73-0.133 0.742-0.0239 1.48-0.0478 2.25-0.0724 3.41-0.0826 6.5-0.112 9.76 0.986z" fill="#002643"/>
<path transform="translate(1158,1038)" d="m0 0c3.72 3.21 5.48 6.75 7.32 11.2 0.3 0.706 0.6 1.41 0.909 2.14 0.974 2.3 1.94 4.6 2.9 6.91 0.676 1.6 1.35 3.2 2.03 4.81 1.96 4.64 3.91 9.29 5.84 13.9 0.725 1.74 0.725 1.74 1.46 3.51 1.61 3.87 3.23 7.75 4.83 11.6 2.22 5.36 4.49 10.7 6.82 16 0.271 0.619 0.542 1.24 0.821 1.88 0.555 1.27 1.11 2.54 1.67 3.81 5.63 12.9 10.9 25.8 16 38.9 3.42 8.83 7.02 17.6 11 26.2 0.278 0.619 0.556 1.24 0.842 1.88 2.5 5.41 4.6 9.36 10.2 11.7 3.38 1.5 3.38 1.5 4.59 4.09 0.26 0.794 0.521 1.59 0.789 2.41-4.8-0.0445-9.6-0.115-14.4-0.208-1.63-0.028-3.26-0.0493-4.89-0.0635-21.5-0.198-21.5-0.198-30.1-8.04-0.606-0.532-1.21-1.06-1.84-1.61-5.27-6.11-8.14-14-11.4-21.3-0.969-2.15-1.94-4.3-2.91-6.45-0.425-0.945-0.85-1.89-1.29-2.86-1.18-2.6-1.18-2.6-3.17-5.43-2.15-0.458-2.15-0.458-4.68-0.388-1.46-0.0142-1.46-0.0142-2.94-0.0287-1.05 0.00607-2.1 0.0121-3.19 0.0184-1.08-0.00287-2.16-0.00574-3.27-0.0087-2.28-0.00204-4.56 0.00351-6.85 0.016-3.5 0.016-7 1.71e-4 -10.5-0.019-2.21 0.00198-4.43 0.00583-6.64 0.0117-1.05-0.00607-2.1-0.0121-3.18-0.0184-0.974 0.00946-1.95 0.0189-2.95 0.0287-0.858 0.00239-1.72 0.00477-2.6 0.00723-2.71 0.467-3.54 1.24-5.21 3.38-0.958 1.89-1.84 3.82-2.66 5.77-0.482 1.14-0.964 2.27-1.46 3.44-0.495 1.19-0.99 2.38-1.5 3.6-0.503 1.18-1.01 2.35-1.52 3.56-2.21 5.24-4.09 9.96-4.85 15.6 3.66 2.4 7.17 3.82 11.3 5.06 0.552 0.311 1.1 0.621 1.67 0.941 0.33 1.32 0.66 2.64 1 4-14.2 0.33-28.4 0.66-43 1-0.33-0.66-0.66-1.32-1-2 2.86-1.87 5.66-3.32 8.85-4.51 0.688-0.266 1.38-0.531 2.08-0.805 1.42-0.54 2.84-1.06 4.27-1.55 3.87-1.54 6.09-2.91 7.83-6.76 0.667-1.79 1.32-3.58 1.96-5.37 0.798-1.98 1.62-3.95 2.44-5.92 0.956-2.3 1.9-4.6 2.84-6.91 7.55-18.5 15.2-37 22.9-55.4 2.26-5.42 4.52-10.8 6.77-16.3 11.2-26.9 11.2-26.9 16.2-38.8 0.338-0.805 0.676-1.61 1.02-2.44 5.35-12.5 5.35-12.5 8.79-14.2z" fill="#002643"/>
<path transform="translate(622,1047)" d="m0 0c16.1 14.3 19.2 38.1 20.4 58.3 1.43 27.2 2.65 63-16.6 85.1-5.96 5.39-10.7 7.12-18.7 6.96-5.12-0.722-8.3-3.06-12.1-6.44-0.922-0.766-0.922-0.766-1.86-1.55-6.68-6.46-9.25-15.9-12.1-24.5-0.342-1.01-0.683-2.02-1.04-3.06-8.82-30.5-7.36-73.4 7.04-102 4.21-7.09 9.79-12.3 17.5-15.4 6.5-1.16 11.8-1.5 17.5 2.38z" fill="#FAFDFE"/>
<path transform="translate(450,1046)" d="m0 0c13.6 10.7 18.6 32.5 20.6 48.6 0.766 7.34 0.702 14.7 0.667 22.1-0.0107 2.65-4.96e-5 5.3 0.0127 7.95 0.0129 13.9-0.348 28.1-4.71 41.5-0.204 0.675-0.409 1.35-0.619 2.05-3.13 10.1-7.51 20.6-16.5 26.7-5.81 2.69-12.2 3.28-18.2 1.1-2.63-1.47-4.87-3.06-7.19-4.99-0.636-0.512-1.27-1.02-1.93-1.55-14.5-14-16.8-41.6-17.3-60.5-0.354-25.6-0.786-57.8 17.6-78.2 7.82-6.8 18.1-8.85 27.6-4.75z" fill="#FAFDFE"/>
<path transform="translate(265 1048)" d="m0 0c11.1 2.42 18.4 7.52 24.7 16.9 7.98 13.3 11.4 28.2 11.4 43.6 0.00499 1.26 0.00499 1.26 0.0101 2.55 0.00504 1.78 0.00741 3.56 0.00725 5.34 0.00217 2.67 0.0203 5.34 0.0393 8.01 0.0706 21.1-2.71 39.4-14.3 57.5-8.04 7.52-18.6 10.6-29.4 10.9-3.5-0.25-3.5-0.25-5.5-2.25-0.26-2.39-0.26-2.39-0.274-5.45-0.00998-1.16-0.02-2.31-0.0302-3.51-9.97e-4 -1.91-9.97e-4 -1.91-0.00201-3.86-0.00762-1.35-0.016-2.7-0.0252-4.06-0.022-3.68-0.0307-7.36-0.0358-11-0.00364-2.3-0.00988-4.59-0.017-6.89-0.0245-8.01-0.0375-16-0.0411-24-0.00363-7.47-0.0335-14.9-0.0754-22.4-0.0347-6.41-0.0501-12.8-0.0508-19.2-7.93e-4 -3.83-0.00956-7.66-0.038-11.5-0.0262-3.6-0.0284-7.21-0.0123-10.8 0.00268-1.95-0.0194-3.9-0.0422-5.85 0.08-9.54 0.08-9.54 3.02-12.7 3.9-2.53 6.27-1.99 10.7-1.34z" fill="#FAFDFE"/>
<path transform="translate(589,1535)" d="m0 0h1v6h3c0.33-1.98 0.66-3.96 1-6h1v6h3v2h-11c0.99 0.33 1.98 0.66 3 1v2h8v2c-0.99 0.33-1.98 0.66-3 1h3v4h-14c3.41 0.852 5.8 1.11 9.25 1.06 0.892-0.00902 1.78-0.018 2.7-0.0273 0.675-0.0116 1.35-0.0232 2.05-0.0352v4h-9v5c-0.99-0.33-1.98-0.66-3-1l-1-2c-0.33 1.32-0.66 2.64-1 4-87.5 1.1-87.5 1.1-127 1.12-2.05 0.0016-4.11 0.00514-6.16 0.00919-13.4 0.0207-26.8 0.0144-40.2-1.13v-2c-0.66-0.33-1.32-0.66-2-1-0.33-0.33-0.66-0.66-1-1v4h-7v-2c-0.66-0.33-1.32-0.66-2-1-0.33-0.33-0.66-0.66-1-1v4h-9v-5h-5c0.99-1.48 0.99-1.48 2-3h3v-2c-1.32-0.33-2.64-0.66-4-1h2v-2c4.59-1.27 9.1-1.37 13.8-1.56 1.04-0.0423 2.09-0.0845 3.16-0.128 15.6-0.555 31.2-0.421 46.9-0.382 4.58 0.0101 9.16 0.0135 13.7 0.0174 11.6 0.011 23.1 0.0306 34.7 0.051 12.6 0.0221 25.1 0.0426 37.7 0.0534 5.44 0.00498 10.9 0.0148 16.3 0.0284 3.36 0.00744 6.73 0.0108 10.1 0.013 1.56 0.00188 3.12 0.00549 4.68 0.0109 2.13 0.00719 4.25 0.00826 6.38 0.00778 1.19 0.00222 2.38 0.00444 3.61 0.00673 2.96 0.0106 2.96 0.0106 5.89-1.12v-2h2v-3h-2v-2h4c0.33-1.98 0.66-3.96 1-6z" fill="#FCFDFD"/>
<path transform="translate(776,1048)" d="m0 0c8.77 1.7 13.9 5.75 19 13 5.12 8.28 6.36 16.2 6.38 25.8 0.0245 0.934 0.049 1.87 0.0742 2.83 0.0378 9.07-2.65 17.3-8.45 24.4-7.93 7.83-17.9 9.3-28.7 9.4-2.9-0.507-3.58-0.993-5.28-3.4-0.239-2.6-0.292-4.94-0.207-7.54 0.0132-0.782 0.0265-1.56 0.0401-2.37 0.0299-1.74 0.0658-3.49 0.107-5.23 0.0635-3.02 0.094-6.05 0.117-9.07 0.0439-5.59 0.118-11.2 0.205-16.8 0.0338-2.33 0.0616-4.66 0.084-6.99 0.0334-3.4 0.0855-6.81 0.142-10.2 0.00639-1.04 0.0128-2.09 0.0194-3.16 0.0297-1.44 0.0297-1.44 0.06-2.92 0.0167-1.27 0.0167-1.27 0.0336-2.56 1.42-7.76 10.5-5.75 16.4-5.18z" fill="#FAFDFE"/>
<path transform="translate(1140,1092)" d="m0 0h2c2.85 6.5 5.68 13 8.5 19.5 1.02 2.34 2.03 4.69 3.06 7.03 1.53 3.52 3.05 7.04 4.57 10.6 0.728 1.66 0.728 1.66 1.47 3.35 0.446 1.04 0.891 2.08 1.35 3.15 0.596 1.38 0.596 1.38 1.2 2.78 0.884 2.69 1.02 4.78 0.851 7.59-5.16 0.143-10.3 0.286-15.5 0.427-1.75 0.0482-3.51 0.0967-5.26 0.146-2.53 0.0703-5.05 0.139-7.58 0.208-0.778 0.0219-1.56 0.0437-2.36 0.0663-4.11 0.111-8.21 0.175-12.3 0.152-1.12-1.66-1.12-1.66-2-4 0.624-2.57 0.624-2.57 1.86-5.49 0.678-1.63 0.678-1.63 1.37-3.3 0.502-1.16 1-2.33 1.52-3.52 0.501-1.19 1-2.38 1.52-3.61 1.56-3.7 3.14-7.39 4.73-11.1 0.977-2.29 1.95-4.58 2.93-6.86 1.71-3.99 3.43-7.98 5.17-12 0.344-0.786 0.687-1.57 1.04-2.38 0.857-1.8 0.857-1.8 1.86-2.8z" fill="#FAFDFE"/>
<path transform="translate(1586,1481)" d="m0 0h2c0.33 4.62 0.66 9.24 1 14h2v-14h2c0.0463 10.9 0.0818 21.8 0.104 32.8 0.0105 5.07 0.0246 10.1 0.0473 15.2 0.0217 4.89 0.0337 9.78 0.0389 14.7 0.00371 1.87 0.0109 3.74 0.0217 5.61 0.0144 2.61 0.0165 5.22 0.0156 7.83 0.00719 0.778 0.0144 1.56 0.0218 2.36-0.0207 5.35-0.0207 5.35-2.25 7.58-2-1-2-1-3-4 0.0412 1.11 0.0825 2.23 0.125 3.38-0.125 3.62-0.125 3.62-2.12 5.62-0.66-0.33-1.32-0.66-2-1-0.143-6.48-0.285-13-0.427-19.4-0.0483-2.2-0.0968-4.41-0.146-6.61-0.0699-3.17-0.139-6.33-0.208-9.5-0.0219-0.986-0.0437-1.97-0.0663-2.99-0.02-0.921-0.04-1.84-0.0607-2.79-0.0178-0.808-0.0355-1.62-0.0538-2.45-0.0354-2.08-0.038-4.15-0.038-6.23-0.186-0.722-0.371-1.44-0.562-2.19-0.144-0.598-0.289-1.2-0.438-1.81 0.495-0.495 0.495-0.495 1-1 0.157-1.56 0.251-3.13 0.316-4.69 0.0419-0.944 0.0838-1.89 0.127-2.86 0.0393-0.993 0.0786-1.99 0.119-3.01 0.0648-1.5 0.0648-1.5 0.131-3.02 0.106-2.47 0.208-4.94 0.307-7.42h2v-14z" fill="#FDFDFD"/>
<path transform="translate(1584,7)" d="m0 0h1v16h3c0.33-5.28 0.66-10.6 1-16h1v16h3v3h-3v2h3v59h-2v-23h-2c0.66-1.65 1.32-3.3 2-5h-2c-0.33 10.9-0.66 21.8-1 33h-2v-28h-2v-26h-7c0.66-0.66 1.32-1.32 2-2h3v-3h-5c0.66-0.66 1.32-1.32 2-2h3c-0.0206-1.07-0.0412-2.14-0.0625-3.25 0.0625-3.75 0.0625-3.75 0.531-5.56 0.721-2.97 0.881-5.89 1.09-8.94 0.0838-1.17 0.168-2.34 0.254-3.55 0.0606-0.892 0.121-1.78 0.184-2.7z" fill="#FCFDFD"/>
<path transform="translate(627,1537)" d="m0 0c2.1-0.399 2.1-0.399 4-1v5h2v4c0.638 0.049 1.28 0.098 1.93 0.148 0.826 0.0748 1.65 0.15 2.5 0.227 0.824 0.0696 1.65 0.139 2.5 0.211 0.682 0.137 1.36 0.273 2.07 0.414l1 2h-8c2.48 0.495 2.48 0.495 5 1v5c-1.65-0.33-3.3-0.66-5-1v2h5c-0.33 1.32-0.66 2.64-1 4h-12v-2h-10c0.66-0.33 1.32-0.66 2-1v-2h2v-2c-1.32-0.33-2.64-0.66-4-1h2v-2c-2.64-0.33-5.28-0.66-8-1v-1h5v-4h-5v-1h5v-5c1.46-0.195 2.92-0.381 4.38-0.562 0.812-0.104 1.62-0.209 2.46-0.316 2.16-0.121 2.16-0.121 4.16 0.879z" fill="#FCFDFD"/>
<path transform="translate(1475,26)" d="m0 0h4v2c0.66 0.33 1.32 0.66 2 1-0.33 2.97-0.66 5.94-1 9h-2c-0.495-4.45-0.495-4.45-1-9-0.75 3-1.41 5.97-2 9h-5v-2c-0.66-0.33-1.32-0.66-2-1-0.33-0.33-0.66-0.66-1-1v4h-10v-4c-0.603 0.0116-1.21 0.0232-1.83 0.0352-1.2 0.0135-1.2 0.0135-2.42 0.0273-1.18 0.0174-1.18 0.0174-2.39 0.0352-2.27-0.0938-4.19-0.465-6.36-1.1v-3c1.32-0.33 2.64-0.66 4-1-1.32-0.33-2.64-0.66-4-1v-3c24.6-3.25 24.6-3.25 31 1z" fill="#FCFDFD"/>
<path transform="translate(1586,633)" d="m0 0 2 1c0.902 17.8 1.08 35.5 0.879 53.3-0.0244 2.61-0.0482 5.22-0.0715 7.83-0.0553 6.09-0.117 12.2-0.181 18.3-0.0726 6.95-0.138 13.9-0.203 20.9-0.133 14.3-0.275 28.5-0.424 42.8h-2v-144z" fill="#FDFDFD"/>
<path transform="translate(1591,633)" d="m0 0 2 1c2.45 13.7 1.04 28.5 0.899 42.4-0.0348 3.55-0.0631 7.09-0.0921 10.6-0.0557 6.69-0.117 13.4-0.181 20.1-0.0722 7.63-0.138 15.3-0.203 22.9-0.134 15.7-0.276 31.3-0.424 47h-2v-144z" fill="#FDFDFD"/>
<path transform="translate(252 22.9)" d="m0 0c0.889 0.00322 1.78 0.00645 2.7 0.00977 1.38 0.0126 1.38 0.0126 2.79 0.0254 0.936 0.00451 1.87 0.00902 2.84 0.0137 2.3 0.0118 4.61 0.0282 6.91 0.0488v3h-3v2h3c1.76 3.09 2 4.23 2 8h-2v-3h-2c-0.33 0.99-0.66 1.98-1 3-2.06 0.688-2.06 0.688-4 1v-6h-9v5c-0.99-0.33-1.98-0.66-3-1-0.33-0.66-0.66-1.32-1-2-0.33 1.32-0.66 2.64-1 4h-5v-11h2v-2c3-0.87 5.65-1.12 8.77-1.1z" fill="#FCFDFD"/>
<path transform="translate(1543,1549)" d="m0 0c8.75-0.168 8.75-0.168 11 1 0.717 1.98 1.38 3.98 2 6 0.99 0.66 1.98 1.32 3 2-0.99 0.33-1.98 0.66-3 1v3c0.99 0.33 1.98 0.66 3 1-0.99 0.33-1.98 0.66-3 1-0.33 0.99-0.66 1.98-1 3h-10v-4c-0.66-0.33-1.32-0.66-2-1-0.449-2.18-0.449-2.18-0.688-4.88-0.0864-0.884-0.173-1.77-0.262-2.68-0.0508-2.45-0.0508-2.45 0.949-5.45z" fill="#FCFDFD"/>
<path transform="translate(127,1555)" d="m0 0c0.33 1.32 0.66 2.64 1 4h-5v2c0.639-0.186 1.28-0.371 1.94-0.562 0.681-0.144 1.36-0.289 2.06-0.438 1 1 1 1 1.06 4.56-0.0206 1.13-0.0412 2.27-0.0625 3.44-3.88-1.75-3.88-1.75-5-4v4h-10v-3c-1.65-0.33-3.3-0.66-5-1v-2c-0.66-0.33-1.32-0.66-2-1 0.99-0.33 1.98-0.66 3-1-0.33-0.99-0.66-1.98-1-3-0.66-0.33-1.32-0.66-2-1 7.02-0.599 14-1.14 21-1z" fill="#FCFDFD"/>
<path transform="translate(841,431)" d="m0 0c0.33 0.66 0.66 1.32 1 2h4c0.33-0.66 0.66-1.32 1-2v2h9c0.545 4.08 1 7.87 1 12-6.1 0.221-11.2 0.0117-17-2-0.0816-4.16 0.0175-7.95 1-12z" fill="#FCFDFD"/>
<path transform="translate(1281,913)" d="m0 0c3 1 3 1 4 3 0.66-0.99 1.32-1.98 2-3 3.25 1.62 4.62 4.77 6 8 0.25 3.44 0.25 3.44 0 6h-2v5c-1.65 0.33-3.3 0.66-5 1 0.33 0.99 0.66 1.98 1 3 0.99 0.33 1.98 0.66 3 1v2c-1.87-0.211-1.87-0.211-4-1-1.83-3.12-2.84-6.58-4-10-0.433-1.2-0.866-2.39-1.31-3.62-0.85-4.17-0.421-7.2 0.312-11.4z" fill="#FCFDFD"/>
<path transform="translate(1519,1554)" d="m0 0h16c-0.33 1.32-0.66 2.64-1 4-1.32-0.33-2.64-0.66-4-1v4h5v3h-4c-0.33 1.32-0.66 2.64-1 4h-3c-0.33-1.32-0.66-2.64-1-4-0.33 1.32-0.66 2.64-1 4h-3v-4h-6c0.99-0.33 1.98-0.66 3-1v-4c-0.33 0.66-0.66 1.32-1 2h-2v-3h3v-4z" fill="#FCFDFD"/>
<path transform="translate(1585,224)" d="m0 0h3v71h-2c-0.33-23.4-0.66-46.9-1-71z" fill="#FDFDFD"/>
<path transform="translate(1590,224)" d="m0 0h3v67c-0.66-0.33-1.32-0.66-2-1-0.33-21.8-0.66-43.6-1-66z" fill="#FDFDFD"/>
<path transform="translate(303 22.9)" d="m0 0c1.21 0.0135 1.21 0.0135 2.45 0.0273 0.922 0.0174 0.922 0.0174 1.86 0.0352-0.99 0.495-0.99 0.495-2 1v2h2v3c1.65-0.33 3.3-0.66 5-1-0.99 0.495-0.99 0.495-2 1v2h-3v3c-0.577-0.186-1.15-0.371-1.75-0.562-2.51-0.488-3.89-0.413-6.25 0.562-0.33 0.99-0.66 1.98-1 3v-3h-3v-10c2.88-0.961 4.7-1.11 7.69-1.06z" fill="#FCFDFD"/>
<path transform="translate(1585,169)" d="m0 0h3v53h-2c-1.19-36.7-1.19-36.7-1-53z" fill="#FDFDFD"/>
<path transform="translate(1590,169)" d="m0 0h3v48h-2c-0.145-4.59-0.287-9.17-0.427-13.8-0.0477-1.55-0.0962-3.11-0.146-4.66-0.312-9.87-0.499-19.7-0.427-29.6z" fill="#FDFDFD"/>
<path transform="translate(682,426)" d="m0 0c2.27-0.081 4.54-0.139 6.81-0.188 1.26-0.0348 2.53-0.0696 3.83-0.105 3.36 0.293 3.36 0.293 5.3 1.62 1.05 1.68 1.05 1.68 1.05 4.68-1.32 0.33-2.64 0.66-4 1v-3c-0.33 0.66-0.66 1.32-1 2h-2v2h2v3c-1.98 0.33-3.96 0.66-6 1v-4h-2v-2c-1.32-0.33-2.64-0.66-4-1h6v-2h-2v-2c-1.32-0.33-2.64-0.66-4-1z" fill="#FCFDFD"/>
<path transform="translate(753,438)" d="m0 0c0.99 0.66 1.98 1.32 3 2-0.33 0.66-0.66 1.32-1 2-2.56 0.625-2.56 0.625-5 1 2.48 0.99 2.48 0.99 5 2v2c-1.79 0.195-3.58 0.381-5.38 0.562-1.5 0.157-1.5 0.157-3.02 0.316-2.6 0.121-2.6 0.121-4.6-0.879 0.66-1.32 1.32-2.64 2-4l-2-1c0.33-0.99 0.66-1.98 1-3 3.53-1.18 6.29-1.2 10-1z" fill="#FCFDFD"/>
<path transform="translate(414 434)" d="m0 0c0.557 0.773 0.557 0.773 1.12 1.56h-5v2h3c2 2 2 2 2 5h-2v2h-9v-9h2v-2c5.54-1.35 5.54-1.35 7.88 0.438z" fill="#FCFDFD"/>
<path transform="translate(274,970)" d="m0 0h9v4h-2v2h2v3h3v3h-2v-2h-2l-1 2h-2v-2h-3v-4c-0.66-0.33-1.32-0.66-2-1h2v-4c-0.66-0.33-1.32-0.66-2-1z" fill="#FCFDFD"/>
<path transform="translate(445,605)" d="m0 0c2 2 2 2 2.12 5.62-0.0412 1.11-0.0825 2.23-0.125 3.38l1-2h3c-0.33-2.31-0.66-4.62-1-7 2 2 2 2 2.2 4.6-0.0232 0.998-0.0464 2-0.0703 3.02-0.018 1-0.0361 2.01-0.0547 3.04-0.0348 1.16-0.0348 1.16-0.0703 2.34h-3c-0.33 1.32-0.66 2.64-1 4v-4h-4c-0.33 1.32-0.66 2.64-1 4-1.12-6.62-1.12-6.62 0-10h3c-0.33-2.31-0.66-4.62-1-7z" fill="#FCFDFD"/>
<path transform="translate(1170 1553)" d="m0 0c1.45 0.0309 1.45 0.0309 2.94 0.0625 1.23 6.4 1.23 6.4 0.0625 9.44-0.351 0.516-0.701 1.03-1.06 1.56h-6c-0.0269-1.65-0.0463-3.29-0.0625-4.94-0.0116-0.917-0.0232-1.83-0.0352-2.78 0.151-3.53 0.553-3.27 4.16-3.35z" fill="#FCFDFD"/>
<path transform="translate(943,361)" d="m0 0h2v11h2v2h-3v-2h-2v7c-0.99 0.33-1.98 0.66-3 1-1.47-3.81-0.552-6.32 1-10l2-1h-3v-4h4v-4z" fill="#FDFDFD"/>
<path transform="translate(519,336)" d="m0 0v1h-8v6c-4.95-0.33-9.9-0.66-15-1v-1h9v-4h-9v-1c7.8-1.15 15.2-0.798 23 0z" fill="#FDFDFD"/>
<path transform="translate(537,338)" d="m0 0h6v10h-6v-10z" fill="#FDFDFD"/>
<path transform="translate(636,321)" d="m0 0c1.75 0.311 3.5 0.624 5.25 0.938 1.46 0.261 1.46 0.261 2.95 0.527 2.29 0.439 4.54 0.939 6.8 1.54h-2v2c-0.742-0.0206-1.49-0.0412-2.25-0.0625-2.68-0.0431-2.68-0.0431-4.94 0.625-1.81 0.438-1.81 0.438-3.81-0.562v6h-3c0.66-1.65 1.32-3.3 2-5h-2c0.33-1.98 0.66-3.96 1-6z" fill="#FDFDFD"/>
<path transform="translate(405,454)" d="m0 0h2v2h3v-2h2v2c0.99 0.33 1.98 0.66 3 1h-4c-0.981 3.05-0.981 4.95 0 8-1.65-0.33-3.3-0.66-5-1-0.778-3.41-1.1-6.51-1-10z" fill="#FCFDFD"/>
<path transform="translate(438,860)" d="m0 0h5c1.16 4.26 0.762 7.68 0 12h-4c-0.169-1.44-0.335-2.87-0.5-4.31-0.0928-0.801-0.186-1.6-0.281-2.43-0.219-2.26-0.219-2.26-0.219-5.26z" fill="#FCFDFD"/>
<path transform="translate(455,1572)" d="m0 0h3v2h2v-2h3v2h13v2h-21v-4z" fill="#FDFDFD"/>
<path transform="translate(933,374)" d="m0 0h4c0.054 1.62 0.0928 3.25 0.125 4.88 0.0232 0.905 0.0464 1.81 0.0703 2.74-0.195 2.38-0.195 2.38-2.2 4.38v3h-5c0.99-0.33 1.98-0.66 3-1-0.0838-0.592-0.168-1.18-0.254-1.79-0.555-4.31-0.978-7.96 0.254-12.2z" fill="#FCFDFD"/>
<path transform="translate(1289,1572)" d="m0 0h9v4h-17c0.33-0.99 0.66-1.98 1-3 2.31 0.33 4.62 0.66 7 1v-2z" fill="#FDFDFD"/>
<path transform="translate(1093,299)" d="m0 0c0 8.41 0 8.41-0.375 12.5-0.0696 0.815-0.139 1.63-0.211 2.47-0.205 1.01-0.205 1.01-0.414 2.03-0.66 0.33-1.32 0.66-2 1-1.42-2.83-1.21-5.28-1.25-8.44-0.0387-1.73-0.0387-1.73-0.0781-3.5 0.328-3.07 0.328-3.07 1.78-4.98 1.55-1.09 1.55-1.09 2.55-1.09z" fill="#FDFDFD"/>
<path transform="translate(455,1577)" d="m0 0h3v2h18v2h-21v-4z" fill="#FDFDFD"/>
<path transform="translate(1289,1577)" d="m0 0h9v4h-17c0.33-0.99 0.66-1.98 1-3 2.31 0.33 4.62 0.66 7 1v-2z" fill="#FDFDFD"/>
<path transform="translate(644,1545)" d="m0 0c0.99 0.33 1.98 0.66 3 1-0.115 1.42-0.243 2.83-0.375 4.25-0.0696 0.789-0.139 1.58-0.211 2.39-0.429 2.45-1.2 4.21-2.41 6.36-0.99-0.33-1.98-0.66-3-1 0.186-1.11 0.371-2.23 0.562-3.38 0.754-3.45 0.754-3.45-0.562-5.62h3v-4z" fill="#FDFDFD"/>
<path transform="translate(363,1551)" d="m0 0h2c0.0809 1.62 0.139 3.25 0.188 4.88 0.0348 0.905 0.0696 1.81 0.105 2.74-0.0967 0.786-0.193 1.57-0.293 2.38-0.99 0.66-1.98 1.32-3 2-0.66-0.66-1.32-1.32-2-2 0.312-1.34 0.648-2.67 1-4-0.379-2.19-0.379-2.19-1-4h3v-2z" fill="#FCFDFD"/>
<path transform="translate(440,544)" d="m0 0 1 2h4c0.33-0.66 0.66-1.32 1-2v5h-5v2h5v5l-1-2h-3c-0.66 0.66-1.32 1.32-2 2v-12z" fill="#FDFDFD"/>
<path transform="translate(439,670)" d="m0 0h1v5h2c0.66-1.65 1.32-3.3 2-5h1c0.33 1.98 0.66 3.96 1 6h-6v5c-1.32-0.33-2.64-0.66-4-1 0.66-0.99 1.32-1.98 2-3-0.66-0.66-1.32-1.32-2-2 0.969-1.68 1.97-3.35 3-5z" fill="#FDFDFD"/>
<path transform="translate(439,635)" d="m0 0h3v3h3c-0.33-0.99-0.66-1.98-1-3h3c-0.33 2.31-0.66 4.62-1 7-1.98 0.33-3.96 0.66-6 1-1-6.88-1-6.88-1-8z" fill="#FDFDFD"/>
<path transform="translate(329,1560)" d="m0 0c5.75-0.125 5.75-0.125 8 1h4v3h-12v-4z" fill="#FDFDFD"/>
<path transform="translate(1566,1552)" d="m0 0c1.32 0.33 2.64 0.66 4 1v10h-3c-0.575-3.73-1-7.21-1-11z" fill="#FDFDFD"/>
<path transform="translate(442,573)" d="m0 0c2 3 2 3 2 7 1.65 0.33 3.3 0.66 5 1-0.33 0.99-0.66 1.98-1 3-1.32-0.66-2.64-1.32-4-2l-1 2c-2.48-0.99-2.48-0.99-5-2l1-2h3v-3c-1.32-0.33-2.64-0.66-4-1 1.32-0.33 2.64-0.66 4-1v-2z" fill="#FDFDFD"/>
<path transform="translate(1571,1552)" d="m0 0c1.32 0.33 2.64 0.66 4 1v10h-3c-0.575-3.73-1-7.21-1-11z" fill="#FCFDFD"/>
<path transform="translate(384,959)" d="m0 0h2v2c0.66-0.66 1.32-1.32 2-2h3c0.33 0.99 0.66 1.98 1 3-1.32 0.33-2.64 0.66-4 1 0.33 1.32 0.66 2.64 1 4-0.99-0.33-1.98-0.66-3-1 0.33-1.32 0.66-2.64 1-4-1.32 0.33-2.64 0.66-4 1 0.33 1.32 0.66 2.64 1 4-0.99-0.33-1.98-0.66-3-1 0.33-1.65 0.66-3.3 1-5h2v-2z" fill="#FDFDFD"/>
<path transform="translate(857,433)" d="m0 0h4c0.0825 1.11 0.165 2.23 0.25 3.38 0.329 3.68 0.329 3.68 2.81 5.06 0.639 0.186 1.28 0.371 1.94 0.562-2.46 1.23-4.28 1.07-7 1-1.11-3.33-1.54-6.53-2-10z" fill="#FDFDFD"/>
<path transform="translate(1036,339)" d="m0 0h3v10h-7c1.32-0.33 2.64-0.66 4-1v-4c-1.32-0.33-2.64-0.66-4-1h4v-4z" fill="#FDFDFD"/>
<path transform="translate(441,499)" d="m0 0c1.32 0.33 2.64 0.66 4 1v10c-0.99 0.33-1.98 0.66-3 1-0.33-3.96-0.66-7.92-1-12z" fill="#FCFDFD"/>
<path transform="translate(439,759)" d="m0 0c0.66 0.33 1.32 0.66 2 1l-2 4c0.66 0.33 1.32 0.66 2 1-0.165 0.557-0.33 1.11-0.5 1.69-0.54 2.5-0.571 4.76-0.5 7.31h-3c-0.0541-1.94-0.0928-3.87-0.125-5.81-0.0232-1.08-0.0464-2.16-0.0703-3.27 0.195-2.92 0.195-2.92 2.2-5.92z" fill="#FDFDFD"/>
<path transform="translate(446,860)" d="m0 0h2c1.16 4.26 0.762 7.68 0 12h-3c-0.33-2.31-0.66-4.62-1-7 0.66-0.33 1.32-0.66 2-1-0.33-0.99-0.66-1.98-1-3 0.33-0.33 0.66-0.66 1-1z" fill="#FCFDFD"/>
<path transform="translate(922,400)" d="m0 0v3h-2v2h2c-0.835 2.5-1.79 4.67-3 7-2-2-2-2-2.05-4.13 0.098-0.803 0.196-1.61 0.297-2.43 0.0877-0.806 0.175-1.61 0.266-2.44 0.16-0.659 0.32-1.32 0.484-2 2-1 2-1 4-1z" fill="#FDFDFD"/>
<path transform="translate(1147,37)" d="m0 0h11v3h-11v-3z" fill="#FDFDFD"/>
<path transform="translate(1147,32)" d="m0 0h11v3h-11v-3z" fill="#FDFDFD"/>
<path transform="translate(399,973)" d="m0 0h2v11h-6l1-2c0.99 0.33 1.98 0.66 3 1v-4h-4l1-2c0.99 0.33 1.98 0.66 3 1v-5z" fill="#FDFDFD"/>
<path transform="translate(437,37)" d="m0 0h12v3h-10v-2c-0.66-0.33-1.32-0.66-2-1z" fill="#FDFDFD"/>
<path transform="translate(437,32)" d="m0 0h12v3h-10v-2c-0.66-0.33-1.32-0.66-2-1z" fill="#FDFDFD"/>
<path transform="translate(368,1551)" d="m0 0h2c0.0809 1.62 0.139 3.25 0.188 4.88 0.0348 0.905 0.0696 1.81 0.105 2.74-0.0967 0.786-0.193 1.57-0.293 2.38-0.99 0.66-1.98 1.32-3 2-1.2-4.78-0.527-7.42 1-12z" fill="#FDFDFD"/>
<path transform="translate(1245,894)" d="m0 0h8c0.33 1.65 0.66 3.3 1 5h-3v-2h-6v-3z" fill="#FDFDFD"/>
<path transform="translate(638,316)" d="m0 0c2.48 0.99 2.48 0.99 5 2 0.33-0.66 0.66-1.32 1-2 0.66 0.33 1.32 0.66 2 1v2h-2c-0.33 0.99-0.66 1.98-1 3-1.65-0.33-3.3-0.66-5-1v-5z" fill="#FDFDFD"/>
<path transform="translate(1111,316)" d="m0 0h10v3h-11c0.33-0.99 0.66-1.98 1-3z" fill="#FDFDFD"/>
<path transform="translate(1111,311)" d="m0 0h10v3h-11c0.33-0.99 0.66-1.98 1-3z" fill="#FDFDFD"/>
<path transform="translate(310,1556)" d="m0 0h10v2c0.66 0.33 1.32 0.66 2 1h-11c-0.33-0.99-0.66-1.98-1-3z" fill="#FDFDFD"/>
<path transform="translate(329,1555)" d="m0 0h6c0.33 1.32 0.66 2.64 1 4h-8c0.33-1.32 0.66-2.64 1-4z" fill="#FDFDFD"/>
<path transform="translate(980,344)" d="m0 0h2v10c-0.99 0.33-1.98 0.66-3 1-0.027-1.46-0.0464-2.92-0.0625-4.38-0.0116-0.812-0.0232-1.62-0.0352-2.46 0.0977-2.16 0.0977-2.16 1.1-4.16z" fill="#FDFDFD"/>
<path transform="translate(1118,37)" d="m0 0h14v3h-7v-2h-7v-1z" fill="#FDFDFD"/>
<path transform="translate(1118,32)" d="m0 0h14v3h-7v-2h-7v-1z" fill="#FDFDFD"/>
<path transform="translate(1245,899)" d="m0 0c2.97 0.33 5.94 0.66 9 1v4h-3v-2h-6v-3z" fill="#FDFDFD"/>
<path transform="translate(584,337)" d="m0 0c2.48 0.99 2.48 0.99 5 2v-2c1.65 0.33 3.3 0.66 5 1v2c-2.74 1.37-4.97 1.13-8 1-0.66-0.33-1.32-0.66-2-1v-3z" fill="#FDFDFD"/>
<path transform="translate(1485,1541)" d="m0 0h9v2c1.65-0.66 3.3-1.32 5-2v2c-4.39 0.702-8.56 1.11-13 1-0.33-0.99-0.66-1.98-1-3z" fill="#FDFDFD"/>
<path transform="translate(1572,1536)" d="m0 0h3v2h2v-2h3v2c0.99 0.33 1.98 0.66 3 1h-12c-0.33 0.66-0.66 1.32-1 2v-3h2v-2z" fill="#FDFDFD"/>
<path transform="translate(596,793)" d="m0 0h2v11c-1.32-0.33-2.64-0.66-4-1h2v-4c-0.66-0.33-1.32-0.66-2-1h2v-5z" fill="#FDFDFD"/>
<path transform="translate(975,344)" d="m0 0h2v10c-0.99 0.33-1.98 0.66-3 1 0-3.82 0.345-7.23 1-11z" fill="#FDFDFD"/>
</svg>
