<?xml version="1.0" encoding="utf-8"?>
<!-- Generator: Adobe Illustrator 26.5.0, SVG Export Plug-In . SVG Version: 6.00 Build 0)  -->
<svg version="1.1" id="Layer_1" xmlns="http://www.w3.org/2000/svg" xmlns:xlink="http://www.w3.org/1999/xlink" x="0px" y="0px"
	 viewBox="0 0 2000 2000" style="enable-background:new 0 0 2000 2000;" xml:space="preserve">
<style type="text/css">
	.st0{stroke:#000000;stroke-width:26.1658;stroke-miterlimit:10;}
	.st1{stroke:#000000;stroke-width:8.904;stroke-miterlimit:10;}
	.st2{fill:#FDBD1D;stroke:#FDBD1D;stroke-width:26.1658;stroke-miterlimit:10;}
	.st3{fill:#FDBD1D;stroke:#FDBD1D;stroke-width:8.904;stroke-miterlimit:10;}
	.st4{fill:#FDBD1D;}
	.st5{fill:#FDBD1D;stroke:#FDBD1D;stroke-width:11.2724;stroke-miterlimit:10;}
	.st6{fill:#FDBD1D;stroke:#FDBD1D;stroke-width:27.9365;stroke-miterlimit:10;}
	.st7{fill:#FDBD1D;stroke:#FDBD1D;stroke-width:11.4701;stroke-miterlimit:10;}
	.st8{stroke:#000000;stroke-width:11.2724;stroke-miterlimit:10;}
	.st9{stroke:#000000;stroke-width:27.9365;stroke-miterlimit:10;}
	.st10{stroke:#000000;stroke-width:11.4701;stroke-miterlimit:10;}
</style>
<g>
	<path class="st2" d="M658.6,996.1c-8.1,28.4-24.4,39.2-43.8,39.2l-69.8,0c-19.4,0-29.5-10.8-21.4-39.2l23.6-82.5
		c8.1-28.4,24.4-39.2,43.8-39.2l69.8,0c19.4,0,29.5,10.8,21.4,39.2L658.6,996.1z M584.1,898.1c-8,0-13.9,5-16.9,15.6l-23.6,82.5
		c-3,10.6-0.1,15.6,8,15.6l70.1,0c8,0,13.9-5,16.9-15.6l23.6-82.5c3-10.6,0.1-15.6-8-15.6L584.1,898.1z"/>
	<path class="st2" d="M828.1,996.1c-8.1,28.4-24.4,39.2-43.8,39.2l-69.8,0c-19.4,0-29.5-10.8-21.4-39.2l23.6-82.5
		c8.1-28.4,24.4-39.2,43.8-39.2l69.8,0c19.4,0,29.5,10.8,21.4,39.2L828.1,996.1z M753.7,898.1c-8,0-13.9,5-16.9,15.6l-23.6,82.5
		c-3,10.6-0.1,15.6,8,15.6l70.1,0c8,0,13.9-5,16.9-15.6l23.6-82.5c3-10.6,0.1-15.6-8-15.6L753.7,898.1z"/>
	<path class="st3" d="M512,908.1c2.9,13.4,1.8,29-3.3,46.7c-5.1,17.8-12.9,33.3-23.5,46.7c-10.5,13.3-22.9,23.7-37.1,31.1
		c-14.1,7.5-29.3,11.2-45.4,11.2l-69.9,0l51-178.1l69.9,0c16.1,0,29.1,3.7,39,11.2C502.7,884.4,509.1,894.8,512,908.1z M436.6,988.3
		c7.6-6.6,13.7-17.8,18.2-33.6c4.5-15.7,4.8-26.8,1-33.4c-3.7-6.7-12.2-10-25.3-10l-9.3,0l-24.9,87l9.3,0
		C418.7,998.3,429.1,995,436.6,988.3z"/>
	<path class="st4" d="M1268.1,861.7l-33.7,186.8l-61.2,0c7-30,14-60.1,21-90.1c-18.2,30-36.3,60.1-54.5,90.1l-40.2,0
		c-0.9-30.1-1.8-60.2-2.8-90.3c-10.2,30.1-20.4,60.2-30.6,90.3l-61.3,0l73.2-186.8l75.5,0l-3.9,81.9l43-81.9L1268.1,861.7z"/>
	<path class="st4" d="M1605.6,861.4l61.5,0l-53.4,186.8l-61.5,0c-8.8-30.3-17.6-60.6-26.3-90.9c-8.3,30.3-16.7,60.6-25,90.9l-61.6,0
		l53.4-186.8l61.6,0l27.1,85L1605.6,861.4z"/>
	<g>
		<polygon class="st4" points="1432,1048.5 1359.8,1048.5 1374,923.8 1316.8,1048.5 1244.5,1048.4 1349,861.7 1434.5,861.7 		"/>
	</g>
	<g>
		<path class="st4" d="M933.2,1048.5l-5.8-48.6l-20.4,0l-13.9,48.6l-54.4,0l53.5-187.2l79.5,0c44.5,0,63.1,24.3,50.9,67
			c-7.8,27.2-22.7,47.5-43,59.3l14.9,60.9L933.2,1048.5z M920.5,952.9l25.1,0c11.7,0,20.9-8.3,25-22.7c4-13.9-0.5-21.9-12.3-21.9
			l-25.1,0L920.5,952.9z"/>
	</g>
</g>
</svg>
