<?xml version="1.0" standalone="no"?>
<!DOCTYPE svg PUBLIC "-//W3C//DTD SVG 20010904//EN"
 "http://www.w3.org/TR/2001/REC-SVG-20010904/DTD/svg10.dtd">
<svg version="1.0" xmlns="http://www.w3.org/2000/svg"
 width="300.000000pt" height="300.000000pt" viewBox="0 0 300.000000 300.000000"
 preserveAspectRatio="xMidYMid meet">

<g transform="translate(0.000000,300.000000) scale(0.100000,-0.100000)"
fill="#000000" stroke="none">
<path d="M870 2241 c0 -6 13 -11 28 -11 51 0 72 -29 77 -104 2 -36 7 -70 10
-76 3 -5 1 -10 -5 -10 -8 0 -10 -105 -8 -379 2 -209 0 -374 -4 -368 -7 11 -11
-5 -11 -38 0 -6 -7 -11 -16 -12 -9 -1 -35 -3 -58 -4 -24 -2 -43 -7 -43 -12 0
-14 724 -4 742 10 8 7 17 10 20 7 3 -2 22 3 42 12 l36 18 -28 18 c-15 10 -36
18 -46 18 -14 0 -17 3 -9 11 7 7 24 3 56 -14 45 -24 46 -24 66 -6 11 11 23 19
26 19 20 0 94 109 87 129 -3 8 0 11 6 8 6 -4 10 9 10 34 1 50 12 65 13 18 1
-31 2 -32 9 -9 4 14 6 45 5 70 -2 41 -2 42 4 10 l7 -35 6 40 5 40 1 -42 c1
-24 7 -43 12 -43 6 0 10 -5 10 -11 0 -5 -3 -8 -7 -6 -5 3 -9 -20 -10 -51 -1
-39 2 -51 7 -37 8 18 9 17 9 -7 1 -16 -3 -28 -9 -28 -5 0 -10 -18 -10 -39 0
-22 5 -43 10 -46 6 -3 10 -11 10 -16 0 -6 -4 -7 -10 -4 -6 4 -7 -6 -4 -25 4
-19 2 -30 -4 -30 -6 0 -9 7 -6 15 4 8 1 15 -5 15 -6 0 -11 -7 -11 -16 0 -8 -4
-13 -9 -10 -12 8 -41 -3 -41 -15 0 -5 63 -9 140 -9 84 0 140 4 140 10 0 5 -7
6 -17 3 -11 -5 -14 -3 -8 6 5 10 2 11 -14 6 -16 -5 -20 -3 -15 9 4 11 2 15 -7
11 -12 -4 -14 67 -12 432 2 241 5 447 8 459 6 27 50 74 69 74 25 0 25 15 0 16
-13 1 -24 -1 -24 -5 0 -3 -42 -5 -94 -3 -91 3 -95 3 -102 -20 -4 -13 -7 -31
-5 -42 1 -10 -2 -15 -8 -12 -17 11 -34 -31 -21 -52 9 -14 10 -13 4 7 -3 14 -2
21 3 18 9 -6 23 15 37 53 3 8 3 -14 0 -50 -3 -49 -2 -60 6 -45 9 17 9 16 3 -5
-11 -39 -13 -273 -2 -287 7 -7 6 -13 -1 -18 -5 -3 -10 -32 -10 -63 0 -68 -15
-101 -25 -59 -4 15 -5 40 -2 56 3 15 3 39 -1 52 -5 19 -9 12 -19 -36 l-12 -60
5 76 c3 60 1 79 -11 89 -8 7 -15 18 -15 24 -1 18 -39 58 -50 51 -6 -3 -7 0 -4
9 4 11 0 16 -15 16 -12 0 -21 6 -21 14 0 17 -28 41 -37 32 -4 -4 -1 -12 7 -17
12 -9 12 -10 -2 -5 -10 3 -18 1 -18 -5 0 -6 -5 -7 -10 -4 -6 4 -4 12 5 21 20
21 20 22 -22 40 -47 19 -71 26 -103 28 -14 0 -27 4 -30 8 -3 4 -62 4 -130 0
l-125 -7 90 -6 c67 -5 104 -13 145 -33 34 -16 62 -24 74 -20 17 6 19 4 9 -7
-10 -12 -8 -17 6 -26 11 -7 23 -8 32 -2 19 12 25 11 43 -7 9 -9 16 -11 16 -4
0 6 4 8 10 5 9 -6 4 -16 -26 -48 -8 -9 -7 -18 5 -37 8 -14 18 -27 21 -30 16
-13 40 -133 40 -196 0 -39 4 -74 9 -80 5 -5 12 -25 15 -44 3 -19 3 -29 0 -21
-5 11 -10 8 -21 -10 -10 -17 -12 -18 -7 -4 4 11 9 33 12 49 7 40 -14 25 -23
-17 -4 -17 -16 -46 -26 -63 -11 -18 -17 -40 -13 -50 4 -13 3 -15 -3 -6 -7 9
-17 4 -40 -20 -16 -18 -43 -44 -59 -56 -25 -21 -26 -23 -6 -17 13 4 22 2 22
-4 0 -6 -8 -11 -18 -11 -10 0 -23 -5 -30 -12 -9 -9 -15 -9 -27 3 -14 13 -13
20 7 59 12 25 21 55 20 68 -1 12 5 25 12 28 8 3 12 12 9 21 -4 11 -10 8 -25
-14 -15 -21 -18 -23 -14 -7 9 30 -3 54 -25 54 -12 0 -24 11 -30 28 -10 24 -12
25 -18 8 -4 -11 -7 10 -7 46 1 49 -3 69 -16 82 -10 10 -18 21 -18 25 0 4 -10
18 -22 31 -13 14 -22 26 -20 27 6 8 1 33 -10 45 -7 8 -32 52 -56 98 -24 47
-72 143 -108 213 -36 70 -72 131 -80 134 -13 5 -13 7 -2 14 7 5 -31 9 -92 9
-58 0 -115 3 -127 6 -14 4 -23 2 -23 -5z m153 -18 c-13 -2 -33 -2 -45 0 -13 2
-3 4 22 4 25 0 35 -2 23 -4z m1037 1 c-58 -8 -148 -8 -143 -1 2 4 41 6 86 6
45 -1 71 -3 57 -5z m-919 -63 c13 -30 15 -40 5 -32 -8 7 -17 24 -21 39 -4 15
-12 31 -18 35 -9 6 -8 8 1 5 7 -2 22 -23 33 -47z m-128 -44 c8 -3 11 9 10 42
l-2 46 9 -40 c4 -22 6 -50 3 -61 -3 -15 4 -30 24 -49 15 -15 22 -24 16 -21
-32 18 4 -46 45 -78 14 -11 20 -22 14 -30 -5 -7 14 -54 49 -126 54 -106 58
-112 55 -72 -4 36 -2 41 10 31 12 -10 12 -65 -1 -78 -3 -2 8 -15 23 -29 15
-13 21 -21 15 -18 -18 10 -17 7 23 -70 20 -38 54 -104 76 -147 22 -42 43 -75
48 -72 4 3 6 -4 3 -16 -4 -14 -1 -20 8 -19 29 5 40 -1 49 -25 5 -14 15 -25 21
-25 7 0 10 -3 6 -6 -3 -4 -68 -9 -143 -11 l-137 -5 5 26 c3 14 1 26 -3 26 -5
0 -9 7 -9 16 0 8 5 12 11 8 14 -8 8 263 -6 288 -7 11 -9 -28 -7 -124 4 -153
-10 -221 -49 -233 -28 -9 -169 -2 -162 8 2 4 0 13 -6 20 -6 8 -11 178 -13 472
-2 253 -2 441 0 418 2 -23 8 -43 15 -46z m1014 51 c-3 -7 -5 -2 -5 12 0 14 2
19 5 13 2 -7 2 -19 0 -25z m-18 -896 c-9 -15 -10 -15 -5 1 3 10 7 211 8 445
l3 427 2 -428 c2 -296 0 -434 -8 -445z m-879 848 c0 -5 -5 -10 -11 -10 -5 0
-7 5 -4 10 3 6 8 10 11 10 2 0 4 -4 4 -10z m-55 -20 c3 -5 -1 -10 -10 -10 -9
0 -13 5 -10 10 3 6 8 10 10 10 2 0 7 -4 10 -10z m89 -5 c3 -8 1 -15 -4 -15 -6
0 -10 7 -10 15 0 8 2 15 4 15 2 0 6 -7 10 -15z m365 -71 c11 -11 -7 -10 -34 3
l-30 14 30 -6 c16 -4 32 -9 34 -11z m51 -9 c-7 -8 -20 -14 -29 -14 -13 1 -13
2 2 6 9 2 17 9 17 14 0 5 5 9 11 9 8 0 8 -5 -1 -15z m-365 -5 c3 -5 1 -10 -4
-10 -6 0 -11 5 -11 10 0 6 2 10 4 10 3 0 8 -4 11 -10z m445 -10 c13 -9 13 -11
0 -20 -25 -16 -47 -12 -24 5 19 14 18 14 -3 15 -13 0 -23 -5 -23 -12 0 -6 -3
-9 -6 -5 -10 9 6 27 24 27 9 0 24 -5 32 -10z m257 -12 c-3 -8 -6 -5 -6 6 -1
11 2 17 5 13 3 -3 4 -12 1 -19z m-678 -34 c15 -33 7 -44 -10 -12 -6 12 -17 26
-23 30 -7 5 -5 8 5 8 9 0 21 -12 28 -26z m-34 -43 c0 -37 -10 -48 -13 -15 -2
22 4 44 11 44 1 0 2 -13 2 -29z m-32 -34 c-4 -6 -10 -2 -14 9 -12 31 -9 40 6
20 8 -10 11 -24 8 -29z m113 6 c4 -16 13 -37 20 -48 8 -11 14 -27 14 -37 0
-10 9 -26 19 -35 11 -9 18 -20 15 -25 -8 -13 -24 -9 -24 6 0 8 -5 16 -12 18
-6 2 -12 13 -13 24 -1 10 -7 32 -14 47 -6 16 -11 35 -11 42 0 9 -6 12 -15 9
-15 -6 -21 7 -8 19 13 13 23 7 29 -20z m498 8 c3 -5 -1 -11 -9 -14 -9 -4 -12
-1 -8 9 6 16 10 17 17 5z m-87 -16 c8 -22 -6 -33 -17 -15 -13 20 -12 30 0 30
6 0 13 -7 17 -15z m107 -20 c3 -8 1 -15 -4 -15 -6 0 -10 7 -10 15 0 8 2 15 4
15 2 0 6 -7 10 -15z m-611 -17 c9 -31 2 -33 -11 -3 -6 14 -8 25 -3 25 5 0 11
-10 14 -22z m571 6 c3 -8 2 -12 -4 -9 -6 3 -10 10 -10 16 0 14 7 11 14 -7z
m153 -16 c-3 -8 -6 -5 -6 6 -1 11 2 17 5 13 3 -3 4 -12 1 -19z m-187 -3 c0 -8
-2 -15 -4 -15 -2 0 -6 7 -10 15 -3 8 -1 15 4 15 6 0 10 -7 10 -15z m0 -45 c0
-11 -2 -20 -4 -20 -2 0 -6 9 -9 20 -3 11 -1 20 4 20 5 0 9 -9 9 -20z m-420
-54 c0 -16 -18 -3 -28 19 -17 37 -15 41 8 12 11 -14 20 -28 20 -31z m446 -14
c-3 -3 -6 3 -6 14 0 16 -2 17 -11 4 -9 -12 -10 -12 -5 3 3 10 6 26 7 35 0 9 5
2 10 -17 6 -18 8 -36 5 -39z m-476 -40 c0 -15 -2 -15 -10 -2 -13 20 -13 33 0
25 6 -3 10 -14 10 -23z m87 6 c-3 -8 -6 -5 -6 6 -1 11 2 17 5 13 3 -3 4 -12 1
-19z m380 -60 c-2 -13 -4 -3 -4 22 0 25 2 35 4 23 2 -13 2 -33 0 -45z m110 5
c-3 -10 -5 -4 -5 12 0 17 2 24 5 18 2 -7 2 -21 0 -30z m-507 9 c0 -4 -5 -13
-11 -19 -13 -13 -3 -67 10 -58 5 3 7 -4 4 -16 -8 -27 -22 -11 -33 36 -6 26 -5
42 3 51 13 15 27 18 27 6z m567 -59 c-3 -10 -5 -4 -5 12 0 17 2 24 5 18 2 -7
2 -21 0 -30z m-527 -103 c0 -5 -2 -10 -4 -10 -3 0 -8 5 -11 10 -3 6 -1 10 4
10 6 0 11 -4 11 -10z m437 4 c-3 -3 -12 -4 -19 -1 -8 3 -5 6 6 6 11 1 17 -2
13 -5z m-27 -23 c12 -23 1 -60 -24 -80 -15 -12 -15 -10 -1 22 19 46 19 57 -1
57 -11 0 -14 -6 -9 -22 5 -18 4 -20 -4 -8 -6 8 -11 23 -11 33 0 24 37 22 50
-2z m-380 -8 c0 -5 -5 -15 -10 -23 -8 -12 -10 -11 -10 8 0 12 5 22 10 22 6 0
10 -3 10 -7z m310 -13 c0 -5 -7 -10 -16 -10 -8 0 -12 5 -9 10 3 6 10 10 16 10
5 0 9 -4 9 -10z m20 -20 c0 -5 -5 -10 -11 -10 -5 0 -7 5 -4 10 3 6 8 10 11 10
2 0 4 -4 4 -10z m-317 -31 c-4 -15 -8 -17 -14 -8 -6 11 4 28 18 29 0 0 -1 -9
-4 -21z m94 -11 c-3 -8 -6 -5 -6 6 -1 11 2 17 5 13 3 -3 4 -12 1 -19z m147
-14 c7 -19 0 -34 -17 -34 -7 0 -6 4 3 10 8 5 11 12 7 16 -4 4 -13 2 -19 -4
-20 -20 -32 -13 -13 8 22 24 31 25 39 4z m36 -44 c0 -5 -2 -10 -4 -10 -3 0 -8
5 -11 10 -3 6 -1 10 4 10 6 0 11 -4 11 -10z m-70 -38 c3 -3 -5 -1 -17 2 -14 5
-24 2 -30 -8 -4 -8 -21 -18 -38 -21 -29 -7 -29 -7 -10 8 11 9 26 17 33 17 7 0
15 7 18 15 6 15 10 14 44 -13z m-645 -21 c-3 -6 -11 -11 -16 -11 -5 0 -4 6 3
14 14 16 24 13 13 -3z m235 -1 c0 -5 -4 -10 -10 -10 -5 0 -10 5 -10 10 0 6 5
10 10 10 6 0 10 -4 10 -10z m287 -16 c-3 -3 -12 -4 -19 -1 -8 3 -5 6 6 6 11 1
17 -2 13 -5z"/>
<path d="M1106 1947 c3 -10 9 -15 12 -12 3 3 0 11 -7 18 -10 9 -11 8 -5 -6z"/>
<path d="M1453 1276 c15 -32 30 -34 25 -4 -2 13 -11 24 -20 26 -14 3 -15 0 -5
-22z"/>
<path d="M1824 2063 c-21 -55 -28 -96 -13 -87 5 3 7 15 3 26 -4 14 -2 18 5 14
7 -5 8 -1 4 10 -4 12 -3 15 5 10 8 -5 10 -2 6 8 -3 9 -2 16 4 16 14 0 22 24
13 39 -5 8 -15 -6 -27 -36z"/>
<path d="M1627 1936 c-8 -20 15 -37 33 -26 8 5 11 12 7 17 -5 4 -13 1 -18 -7
-8 -11 -9 -10 -4 8 7 24 -9 31 -18 8z"/>
<path d="M1883 1695 c0 -22 2 -30 4 -17 2 12 2 30 0 40 -3 9 -5 -1 -4 -23z"/>
<path d="M1666 1692 c2 -15 1 -21 -2 -14 -4 9 -10 6 -19 -11 -18 -35 -40 -100
-37 -111 2 -4 -3 -13 -11 -20 -7 -6 -18 -23 -25 -38 -9 -22 -9 -26 3 -22 16 7
58 91 50 104 -3 4 -2 10 2 12 12 5 53 85 53 102 0 8 -4 17 -9 20 -4 3 -6 -7
-5 -22z"/>
<path d="M1450 1577 c0 -15 41 -89 47 -84 3 3 -7 25 -21 49 -14 24 -26 39 -26
35z"/>
<path d="M752 1030 c-81 -50 -84 -197 -6 -259 15 -12 37 -21 50 -21 l23 0 -24
24 c-28 28 -40 95 -32 168 8 63 30 98 61 98 32 0 45 -18 58 -84 15 -71 -1
-162 -33 -188 -20 -17 -20 -18 -2 -18 33 0 86 43 99 80 30 83 1 180 -60 205
-49 21 -95 19 -134 -5z"/>
<path d="M1069 1027 c-76 -51 -79 -197 -4 -255 15 -12 38 -22 51 -22 l23 0
-24 24 c-28 28 -40 95 -31 169 9 65 29 97 61 97 32 0 52 -32 61 -97 9 -74 -3
-141 -31 -169 -20 -20 -21 -24 -7 -24 31 0 83 40 98 75 45 109 -17 225 -121
225 -27 0 -54 -8 -76 -23z"/>
<path d="M2145 995 c-14 -33 -40 -97 -58 -142 -19 -49 -40 -86 -52 -92 -17 -8
-14 -10 18 -10 33 -1 36 1 26 17 -7 12 -7 25 0 45 10 25 15 27 61 27 49 0 52
-2 65 -35 17 -40 41 -55 86 -55 28 0 31 2 17 13 -9 6 -40 68 -68 137 -71 171
-64 164 -95 95z m35 -136 c0 -5 -18 -9 -41 -9 -37 0 -40 2 -33 23 3 12 13 35
21 51 l15 29 19 -43 c10 -23 19 -46 19 -51z"/>
<path d="M2550 1039 c0 -4 4 -9 9 -11 10 -3 19 -143 10 -152 -3 -3 -38 32 -78
79 -67 79 -75 85 -109 84 -20 0 -31 -3 -24 -6 9 -3 12 -40 12 -133 0 -112 -2
-130 -17 -139 -15 -8 -10 -10 21 -11 35 0 38 2 23 13 -15 10 -17 27 -15 110
l3 98 93 -111 c51 -60 97 -110 103 -110 6 0 9 52 8 136 -1 97 2 139 11 144 7
5 0 9 -19 12 -17 2 -31 1 -31 -3z"/>
<path d="M408 909 c2 -90 -1 -135 -9 -145 -10 -12 -2 -14 47 -14 122 0 180 39
190 126 13 108 -42 164 -161 164 l-70 0 3 -131z m119 113 c19 -12 43 -78 43
-119 0 -84 -34 -143 -82 -143 -16 0 -18 12 -18 135 0 133 0 135 23 135 12 0
27 -4 34 -8z"/>
<path d="M1348 1033 c9 -3 12 -41 12 -138 0 -97 -3 -135 -12 -138 -7 -3 14 -6
47 -6 37 0 55 3 47 8 -9 5 -14 30 -15 65 -2 46 1 56 14 56 10 0 23 -18 34 -46
24 -63 47 -84 93 -84 20 0 32 4 26 8 -7 4 -22 29 -35 57 -13 27 -33 54 -45 60
-19 9 -18 11 17 28 40 19 53 46 39 82 -17 44 -47 55 -145 54 -49 0 -84 -3 -77
-6z m143 -19 c32 -39 0 -129 -44 -122 -16 3 -19 13 -20 71 -2 66 -2 67 24 67
15 0 33 -7 40 -16z"/>
<path d="M1658 908 c3 -117 1 -134 -14 -145 -16 -11 -13 -13 22 -13 31 1 36 3
22 11 -15 8 -18 26 -18 116 0 67 4 103 9 98 6 -6 34 -57 64 -115 31 -57 59
-106 64 -107 4 -2 29 50 55 115 l47 117 0 -112 c1 -80 -2 -113 -11 -116 -7 -3
14 -5 47 -5 33 0 54 2 48 5 -10 3 -13 41 -13 138 0 97 3 135 13 138 6 3 -7 6
-29 6 -45 1 -37 13 -111 -159 l-20 -45 -42 85 c-53 105 -66 120 -105 120 l-31
0 3 -132z"/>
</g>
</svg>
