<svg xmlns="http://www.w3.org/2000/svg" xmlns:xlink="http://www.w3.org/1999/xlink" viewBox="0,0,256,256" width="250px" height="250px"><g fill="#fcc419" fill-rule="nonzero" stroke="none" stroke-width="1" stroke-linecap="butt" stroke-linejoin="miter" stroke-miterlimit="10" stroke-dasharray="" stroke-dashoffset="0" font-family="none" font-weight="none" font-size="none" text-anchor="none" style="mix-blend-mode: normal"><g transform="scale(5.12,5.12)"><path d="M13.9375,7l-10.08594,18.00391l10.34766,17.99609h21.86328l10.08203,-18l-10.08203,-18zM15.10938,9h19.78125l8.96484,16l-8.96484,16h-19.53516l-9.20703,-16.00391zM17,14v22h8c6.07813,0 11,-4.92187 11,-11c0,-6.07812 -4.92187,-11 -11,-11zM19,16h6c4.96484,0 9,4.03516 9,9c0,4.96484 -4.03516,9 -9,9h-6zM21,18v14h4.33203c3.67578,0 6.66797,-3.14062 6.66797,-7c0,-3.85937 -2.99219,-7 -6.66797,-7zM23,20h2.33203c2.57422,0 4.66797,2.24219 4.66797,5c0,2.75781 -2.09375,5 -4.66797,5h-2.33203z"></path></g></g></svg>